# xmcd CD database file
#
# Track frame offsets:
#	150
#	18035
#	38937
#	65453
#	89280
#	110992
#	129062
#	146092
#	164690
#	186693
#
# Disc length: 2663 seconds
#
# Revision: 3
# Processed by: cddbd v1.5PL3 Copyright (c) Steve Scherf et al.
# Submitted via: CDex 1.50Beta3
#
DISCID=8f0a650a
DTITLE=Martin Schrack Quartett - Never let me go
DYEAR=2003
DGENRE=JPop
TTITLE0=The Running Point
TTITLE1=Georgia on my mind
TTITLE2=There's no greater Love
TTITLE3=I got rhythm
TTITLE4=As time goes by
TTITLE5=Dietmar's Blues
TTITLE6=Funky M.
TTITLE7=Our love is here to stay
TTITLE8=Never let me go
TTITLE9=Oh, when the Saints
EXTD=YEAR: 2003
EXTT0=
EXTT1=
EXTT2=
EXTT3=
EXTT4=
EXTT5=
EXTT6=
EXTT7=
EXTT8=
EXTT9=
PLAYORDER=
